<svg version="1" xmlns="http://www.w3.org/2000/svg" width="933.333" height="933.333" viewBox="0 0 700.000000 700.000000"><path d="M69.7 1.6C52.5 5.3 38.4 12.8 26.5 24.5 14.3 36.6 7.4 48.2 2.8 64.5l-2.3 8-.3 139.1-.3 139.1 43.7 43.7 43.7 43.7 5.1-.6c2.8-.4 5.8-.9 6.7-1 .9-.2 4-.6 6.9-1 2.9-.4 6.1-.8 7-1 .9-.2 4.1-.6 7-1 2.9-.4 6.2-.8 7.3-1.1 1-.2 4.5-.6 7.6-1 3.1-.3 5.8-.8 6.1-.9.3-.2 3.5-.7 7-1 3.6-.4 6.7-.8 7-1 .3-.2 3.4-.6 7-1 3.6-.3 7.2-.8 8-1 .8-.3 3.1-.7 5-.9 1.9-.3 6.8-1 10.8-1.5 4-.6 9.4-1.3 12-1.6 2.6-.3 5.4-.8 6.2-1 .8-.2 4-.7 7-1 3-.3 6.2-.8 7-1 .8-.2 3.9-.7 6.9-1 3-.4 6.1-.8 7-1 2.7-.5 9.3-1.4 14.1-2 2.5-.3 5.6-.8 7-1 1.4-.2 4.5-.7 7-1 2.5-.4 5.6-.8 7-1 3.2-.5 31.3-4.5 36-5.1 1.9-.3 4.6-.7 6-.9 1.4-.3 4.5-.7 7-1 2.5-.3 5.6-.7 7-1 1.4-.3 4.3-.7 6.5-1 2.2-.2 4.9-.7 6.1-.9 1.2-.2 4.5-.7 7.5-1.1 3-.3 6.1-.8 6.9-1 .8-.2 4.4-.7 8-1 3.6-.4 6.8-.9 7.1-1.1.3-.2 3.2-.6 6.4-1 3.2-.3 6.6-.7 7.5-.9.9-.2 4.1-.6 7-1 2.9-.4 6.2-.8 7.3-1.1 1.1-.2 5.7-.8 10.1-1.4 14.2-2 15.1-2.1 17.6-2.5 1.4-.3 4.5-.7 7-1 2.5-.3 8.8-1.2 14-2 5.2-.8 11.8-1.7 14.5-2.1 2.8-.3 5.8-.8 6.9-1 1-.2 4.4-.6 7.5-1 3.1-.3 5.8-.8 6.1-.9.3-.2 3.3-.7 6.5-1 3.3-.4 6.9-.9 8-1.1 1-.2 3.7-.6 6-.9 4.4-.6 10.7-1.5 14.5-2 2.9-.5 23.1-3.3 27.5-4 1.7-.2 8-1.1 14-2 6.1-.9 12.6-1.8 14.5-2.1 1.9-.3 4.6-.7 6-.9 1.4-.2 4.3-.7 6.5-1 2.2-.2 15.3-2.1 29-4 13.8-2 26.7-3.8 28.9-4 2.1-.3 4.6-.7 5.5-.9.9-.3 4.1-.8 7.1-1.1 3-.4 12.4-1.7 20.8-2.9 8.3-1.2 15.2-1.9 15.2-1.4 0 .4-.7.8-1.5.8-.9 0-5.1 1.1-9.3 2.4-4.2 1.4-12.9 4-19.2 6-6.3 1.9-18.2 5.6-26.5 8.2-8.2 2.5-17 5.2-19.5 5.9-6.2 1.8-26.9 8.1-36 11-4.1 1.3-12 3.7-17.5 5.4-5.5 1.6-19.7 6-31.5 9.7-11.8 3.6-23.5 7.2-26 7.9-2.5.7-9.9 3-16.5 5s-14 4.3-16.5 5c-2.5.7-11 3.3-19 5.8s-33.2 10.2-56 17.2c-22.8 6.9-47.1 14.4-54 16.5-6.9 2.1-26 8-42.5 13-16.5 5.1-34.9 10.7-41 12.6-36.9 11.3-54.5 16.8-58.5 17.9-2.5.7-7.4 2.2-11 3.3-3.6 1.1-10 3.1-14.3 4.4l-7.8 2.4 38.6 38.7c21.3 21.3 38.9 38.7 39.2 38.7.5 0 8.3-4.1 34.8-18 8.9-4.7 25.8-13.5 42.5-22.2 4.7-2.4 13.9-7.3 20.5-10.8 19.2-10.1 29.1-15.2 44-23 7.7-4 17.2-8.9 21-11 3.9-2.1 12.9-6.8 20-10.5 7.2-3.7 16.2-8.5 20-10.5 3.9-2.1 13.8-7.2 22-11.5 8.3-4.3 18.8-9.8 23.5-12.3 4.7-2.4 13.2-6.9 19-9.9 5.8-3.1 14.1-7.5 18.5-9.8 4.4-2.3 13.9-7.3 21-11 7.2-3.7 17.1-8.9 22-11.5 5-2.6 14.4-7.5 21-11 6.6-3.4 16.1-8.4 21-11 12.4-6.6 27.8-14.6 42-22 29.1-15.2 33.1-17.3 34.4-18.4 1.1-.8 1.3-.8.8.1-.4.7-6.7 5.6-14 10.8-7.3 5.3-14.5 10.6-16.1 11.8-1.5 1.2-4.7 3.5-7.1 5.2-2.3 1.6-14.7 10.6-27.4 20-12.8 9.3-24.7 18-26.4 19.2-3.5 2.4-43.6 31.7-45.2 33-1.2 1-24.3 17.8-28.5 20.8-3 2.1-28.1 20.4-58 42.3-9.6 7-31 22.7-47.5 34.7-16.5 12-36.7 26.8-45 32.9-8.2 6-16.6 12.1-18.6 13.5-2 1.4-16.5 12-32.2 23.4l-28.4 20.8 27.4 27.5c15.1 15.1 27.8 27.4 28.3 27.4.4 0 79.4-78.6 175.4-174.7l174.7-174.6-.3-139.6-.3-139.6-2.8-9c-7.4-23.6-23.4-42.9-44.2-53.3C648 7 634 1.8 634 2.4c0 .2-2.3-.2-5.2-1C624.5.3 599.6.1 487.3 0c-75 0-136.3.2-136.3.5s77.2 77.7 171.5 172S694 344.2 694 344.5c0 .2-3.7-2.3-8.2-5.7-4.6-3.3-10.3-7.6-12.8-9.4-2.5-1.9-5-3.7-5.5-4.2-.6-.5-2.4-1.7-4-2.8-1.7-1-3.2-2.1-3.5-2.4-.3-.3-2.7-2.2-5.5-4.1-2.7-1.8-5.2-3.6-5.5-3.9-.3-.3-4.8-3.7-10-7.5s-25-18.2-44-32c-19-13.9-45.1-32.9-58-42.3-12.9-9.4-23.9-17.5-24.5-17.9-.8-.7-34.3-25.1-78.5-57.3-5.8-4.2-22.2-16.2-36.5-26.6-14.3-10.5-42.9-31.3-63.5-46.4-20.6-15-37.7-27.4-37.9-27.6-.2-.2 11.6-12.2 26.3-26.8C337 13 349 .8 349 .5c0-.3-61.3-.5-136.3-.4C97.4.2 75.5.4 69.7 1.6zm173.7 109.9c1.5.8 9.9 5.2 18.5 9.6 8.6 4.5 17.9 9.4 20.6 10.9 2.8 1.5 11.3 6 19 10 7.7 4 18.1 9.4 23 12 22.8 12 28.9 15.2 42 22 13.3 6.9 23 12 41 21.5 4.4 2.3 14.3 7.5 22 11.5 7.7 4 17.6 9.2 22 11.5 4.4 2.3 12.8 6.8 18.8 9.9 5.9 3.1 15.3 8 21 11 5.6 2.9 15.6 8.2 22.2 11.6 6.6 3.4 16.1 8.4 21 11 5 2.6 14.9 7.8 22 11.5 7.2 3.7 16.6 8.7 21 11 4.4 2.3 14.3 7.5 22 11.5 7.7 4 17.2 9 21 11 7.7 4.1 20.1 10.6 43 22.5 24.5 12.7 29.3 15.4 25 14.2-2.5-.7-33-10-54.5-16.7l-26-8c-9-2.6-44.9-13.6-72-22-6.9-2.1-30.9-9.5-53.5-16.3-22.5-6.9-61.7-18.9-87-26.7-25.3-7.8-46.7-14.3-47.5-14.5-.8-.2-5.1-1.5-9.5-2.9-14-4.3-63.3-19.4-114.3-35-9.7-3-25.3-7.8-34.7-10.6-9.3-2.9-18.6-5.7-20.5-6.2-1.9-.6-3.7-1.2-3.9-1.4-.4-.3 74-75.2 74.9-75.3.3-.1 1.8.6 3.4 1.4zM100.5 265c3.9.5 8.8 1.2 11 1.5 2.2.3 5.4.7 7 1 1.7.3 4.6.7 6.5.9 3.8.6 7.7 1.1 18.5 2.7 11.2 1.6 12.8 1.9 16.5 2.4 1.9.2 6.9.9 11 1.5s9.3 1.3 11.5 1.6c2.2.3 5 .7 6.2.9 1.2.3 4.6.8 7.5 1.1 2.9.2 5.9.7 6.6.9.7.3 3.4.7 6 1 2.6.3 10.6 1.5 17.7 2.5 7.2 1 15 2.2 17.5 2.5 2.5.3 5.6.8 7 1 2.4.4 4.1.7 14 2 7.2.9 32.3 4.6 35 5 1.4.3 5.2.8 8.5 1.1 3.3.4 6.3.8 6.6 1 .4.2 3.1.6 6 .9 3 .4 7.9 1 10.9 1.6 3 .5 7.1 1.1 9 1.3 9.6 1.2 13.7 1.8 16 2.1 3.2.6 16.5 2.5 20.9 3.1 1.9.2 4.6.6 6 .8 3.6.6 9.8 1.5 15.1 2.1 2.5.3 5.2.8 6 1 .8.2 3.8.6 6.5 1 2.8.3 9.7 1.3 15.5 2.1 5.8.8 11.9 1.7 13.5 1.9 1.7.3 8 1.2 14 2 6.1.9 12.4 1.8 14 2 1.7.3 8 1.2 14 2 6.1.9 12.6 1.8 14.5 2.1 1.9.2 6.4.9 10 1.4 3.6.5 8.1 1.2 10 1.4 8.6 1.3 25.8 3.7 29 4.2 1.9.2 6.4.9 10 1.4 3.6.5 8.3 1.2 10.5 1.5 2.2.3 5.4.7 7 1 1.7.3 4.8.7 7 1 2.2.3 6.9 1 10.5 1.5 3.6.5 8.1 1.2 10 1.4 1.9.3 5.3.8 7.5 1.1 2.2.3 6.9 1 10.5 1.5 3.6.5 8.1 1.2 10 1.4 8.6 1.3 25.8 3.7 29 4.2 1.9.2 6.4.9 10 1.4 11.2 1.7 12.4 1.8 14.9 1.9 1.3.1 2.2.4 1.8.7-.4.5-660.9.9-680.5.5-3.1-.1-1.2-2.1 39.5-43 42-42.2 42.9-43 46.3-42.6 1.9.3 6.7.9 10.5 1.5z"/></svg>