<?xml version="1.0" ?><!DOCTYPE svg  PUBLIC '-//W3C//DTD SVG 1.1//EN'  'http://www.w3.org/Graphics/SVG/1.1/DTD/svg11.dtd'><svg enable-background="new 0 0 200 200" height="200px" id="Layer_1" version="1.1" viewBox="0 0 200 200" width="200px" xml:space="preserve" xmlns="http://www.w3.org/2000/svg" xmlns:xlink="http://www.w3.org/1999/xlink"><g><g><path d="M181.187,111.628H18.813C8.466,111.628,0,120.094,0,130.44v33.863c0,10.348,8.466,18.813,18.813,18.813    h162.374c10.346,0,18.813-8.465,18.813-18.813V130.44C200,120.094,191.532,111.628,181.187,111.628z M193.903,164.304    c0,7.011-5.704,12.716-12.717,12.716H18.813c-7.013,0-12.716-5.705-12.716-12.716V130.44c0-7.014,5.704-12.716,12.716-12.716    h162.374c7.013,0,12.717,5.702,12.717,12.716V164.304z" fill="#5E889E"/><path d="M181.187,120.165H18.813c-5.667,0-10.278,4.605-10.278,10.275v33.863c0,5.666,4.611,10.276,10.278,10.276    h162.374c5.667,0,10.276-4.61,10.276-10.276V130.44C191.463,124.771,186.854,120.165,181.187,120.165z M25.084,153.644    c-3.461,0-6.269-2.811-6.269-6.271c0-3.465,2.808-6.271,6.269-6.271c3.463,0,6.271,2.806,6.271,6.271    C31.355,150.833,28.547,153.644,25.084,153.644z M47.662,153.644c-3.466,0-6.276-2.811-6.276-6.271    c0-3.465,2.81-6.271,6.276-6.271c3.459,0,6.268,2.806,6.268,6.271C53.93,150.833,51.122,153.644,47.662,153.644z M70.231,153.644    c-3.461,0-6.27-2.811-6.27-6.271c0-3.465,2.809-6.271,6.27-6.271c3.466,0,6.273,2.806,6.273,6.271    C76.504,150.833,73.698,153.644,70.231,153.644z M174.918,153.644c-3.467,0-6.271-2.811-6.271-6.271    c0-3.465,2.805-6.271,6.271-6.271c3.463,0,6.269,2.806,6.269,6.271C181.187,150.833,178.381,153.644,174.918,153.644z" fill="#5E889E"/></g><g><path d="M150.634,64.301c-1.378-1.376-3.184-2.066-4.99-2.066c-1.806,0-3.614,0.69-4.992,2.066    c-1.377,1.38-2.07,3.184-2.07,4.994v37.616c0,0.363,0.141,0.726,0.416,1c0.277,0.273,0.637,0.412,1,0.412h11.293    c0.361,0,0.724-0.139,0.998-0.412c0.275-0.274,0.414-0.637,0.414-1V69.295C152.702,67.484,152.014,65.681,150.634,64.301z" fill="#5E889E"/><path d="M152.702,50.354c0,3.895-3.162,7.057-7.059,7.057c-3.9,0-7.063-3.162-7.063-7.057    c0-3.902,3.162-7.061,7.063-7.061C149.54,43.293,152.702,46.452,152.702,50.354z" fill="#5E889E"/><path d="M115.7,83.829c-0.905,0-1.807-0.345-2.498-1.032c-8.671-8.672-13.444-20.193-13.444-32.44    c0-12.265,4.773-23.789,13.446-32.443c1.383-1.376,3.617-1.373,4.993,0.007c1.375,1.377,1.373,3.614-0.005,4.991    c-7.335,7.32-11.375,17.066-11.375,27.446c0,10.365,4.04,20.111,11.375,27.449c1.38,1.377,1.38,3.611,0,4.991    C117.504,83.484,116.599,83.829,115.7,83.829z M130.665,68.865c-0.907,0-1.813-0.345-2.501-1.039    c-4.661-4.677-7.229-10.881-7.229-17.468c0-6.591,2.568-12.794,7.229-17.472c1.373-1.38,3.607-1.383,4.989-0.011    c1.38,1.377,1.386,3.614,0.011,4.994c-3.335,3.344-5.17,7.779-5.17,12.489c0,4.706,1.835,9.142,5.17,12.489    c1.375,1.38,1.369,3.614-0.011,4.99C132.467,68.523,131.564,68.865,130.665,68.865z" fill="#5E889E"/><path d="M175.587,83.829c-0.9,0-1.802-0.345-2.494-1.032c-1.38-1.38-1.38-3.614,0-4.991    c7.335-7.338,11.374-17.084,11.374-27.449c0-10.379-4.039-20.125-11.374-27.446c-1.38-1.376-1.382-3.614-0.005-4.991    c1.376-1.38,3.612-1.383,4.994-0.007c8.67,8.654,13.445,20.179,13.445,32.443c0,12.247-4.775,23.768-13.445,32.44    C177.396,83.484,176.492,83.829,175.587,83.829z M160.622,68.865c-0.901,0-1.802-0.342-2.491-1.028    c-1.381-1.376-1.384-3.61-0.01-4.99c3.333-3.347,5.171-7.783,5.171-12.489c0-4.709-1.838-9.145-5.171-12.489    c-1.374-1.38-1.371-3.617,0.01-4.994c1.382-1.373,3.617-1.369,4.993,0.011c4.66,4.678,7.225,10.881,7.225,17.472    c0,6.587-2.564,12.791-7.225,17.468C162.431,68.52,161.529,68.865,160.622,68.865z" fill="#5E889E"/></g></g></svg>